# xmcd CD database file
#
# Track frame offsets:
#	150
#	18637
#	33075
#	44512
#	55487
#	69787
#	89350
#	104137
#	117362
#	131612
#	144700
#
# Disc length: 2378 seconds
#
# Revision: 0
# Processed by: cddbd v1.5.1PL0 Copyright (c) Steve Scherf et al.
# Submitted via: Feurio! 1.67 - http://www.feurio.com
#
DISCID=9f09480b
DTITLE=Southern Company - Texas Traum
DYEAR=1996
DGENRE=Country
TTITLE0=Wie die Rocky's
TTITLE1=Lonesome me
TTITLE2=Callin' Baton Rouge
TTITLE3=Thanks God - I'm A Country Boy
TTITLE4=Summertime Blues
TTITLE5=I Swear
TTITLE6=Booz Scootin' Boogie
TTITLE7=Jukebox in my Mind
TTITLE8=Texas Traum
TTITLE9=Chantilly Lace
TTITLE10=Wild Horses
EXTD=
EXTT0=
EXTT1=
EXTT2=
EXTT3=
EXTT4=
EXTT5=
EXTT6=
EXTT7=
EXTT8=
EXTT9=
EXTT10=
PLAYORDER=
